<svg width="2722" height="2722" viewBox="0 0 2722 2722" fill="none" xmlns="http://www.w3.org/2000/svg">
<path d="M1392.07 1199.43C1208.1 1199.43 1207.89 920.967 1392.07 920.967C1576.05 920.967 1576.24 1199.43 1392.07 1199.43Z" fill="url(#paint0_radial_6_595)"/>
<path d="M811.299 909.475C814.385 926.914 953.418 996.493 1061.2 1032.99C1077.48 1038.53 967.486 1114.02 791.777 1089.5C675.661 1073.32 625.035 921.436 535.072 860.505C514.397 846.495 742.138 804.634 836.265 812.211C1000.71 825.552 1100.35 1008.55 1070.08 990.463C941.316 913.649 809.559 899.522 811.299 909.475Z" fill="url(#paint1_linear_6_595)"/>
<path d="M1136.24 612.389C1234.13 700.361 1228.34 776.748 1272.85 855.428C1281.32 870.382 1149.74 869.429 1018.54 750.034C931.797 671.129 975.708 517.158 935.812 416.097C926.545 392.678 1138.69 487.14 1211.7 546.214C1339.97 650.01 1318.95 857.326 1304.16 825.301C1241.19 689.287 1218.56 636.987 1136.24 612.389Z" fill="url(#paint2_linear_6_595)"/>
<path d="M2007.75 676.431C1992.02 666.813 1841.76 727.392 1738.85 786.391C1723.31 795.324 1740.21 657.328 1880.57 536.988C1973.31 457.456 2126.89 522.686 2236.51 494.441C2261.84 487.85 2137.14 694.865 2066.44 762.998C1942.62 882.267 1730.98 833.865 1765.99 822.657C1914.75 775.067 2016.7 681.893 2007.75 676.431Z" fill="url(#paint3_linear_6_595)"/>
<path d="M1991.94 1222.27C1984.54 1207.33 1840.38 1181.35 1733.24 1176.93C1717.05 1176.27 1796.47 1078.83 1961.79 1054.37C2071.07 1038.18 2157.17 1162.04 2254.64 1193.23C2275.13 1199.75 2086.93 1297.73 1995.22 1316.8C1843 1348.4 1704.34 1209.44 1736.57 1217.74C1873.3 1252.98 1996.15 1230.78 1991.94 1222.27Z" fill="url(#paint4_linear_6_595)"/>
<path d="M2195.08 957.5C2190.35 945.808 2083.5 918.048 2003.22 908.588C1991.08 907.191 2056.37 838.474 2182.05 829.533C2265.08 823.644 2322.71 921.653 2394.22 950.692C2410.68 957.392 2258.38 1020.12 2192.04 1028.7C2075.89 1043.77 1979.64 931.38 2003.4 939.443C2104.12 973.743 2197.77 964.099 2195.08 957.5Z" fill="url(#paint5_linear_6_595)"/>
<path d="M1838.54 344.242C1823 343.355 1735.55 448.172 1682.53 533.015C1674.55 545.82 1632.16 436.538 1688.6 291.248C1725.79 195.222 1865.89 182.509 1936.1 117.823C1950.73 104.499 1943.74 301.36 1916.65 385.15C1872.17 523.087 1695.59 571.431 1717.13 549.141C1808.69 454.545 1847.36 344.669 1838.54 344.242Z" fill="url(#paint6_linear_6_595)"/>
<path d="M1234.35 230.494C1224.52 240.564 1243.88 362.409 1270.11 448.909C1274.07 461.956 1174.53 425.849 1109.12 301.127C1065.9 218.726 1140.49 115.791 1138.24 29.5343C1137.67 9.79553 1269.94 137.236 1308.62 201.638C1376.09 313.924 1304.02 462.843 1301.69 434.933C1291.7 316.366 1239.93 224.756 1234.35 230.494Z" fill="url(#paint7_linear_6_595)"/>
<path d="M1488.87 211.959C1499.67 220.624 1495.31 342.586 1479.92 430.708C1477.57 444.015 1571.01 396.625 1620.28 266.249C1652.86 180.134 1567.26 87.989 1559.1 3.03686C1556.74 -22.5399 1437.21 136.918 1412.43 192.496C1359.65 310.887 1448.28 448.473 1447.26 420.772C1442.81 303.1 1482.69 206.974 1488.87 211.959Z" fill="url(#paint8_linear_6_595)"/>
<path d="M940.688 228.009C937.518 235.536 974.01 297.245 1006.67 338.396C1011.61 344.618 950.081 346.375 888.096 292.913C847.154 257.609 865.472 186.022 845.833 139.87C839.878 126.019 946.275 174.806 974.671 196.51C1035.12 242.83 1027.99 338.68 1020.76 324.102C990.027 262.15 942.453 223.71 940.688 228.009Z" fill="url(#paint9_linear_6_595)"/>
<path d="M730.938 531.335C800.56 576.249 801.747 641.161 859.609 706.115C613.944 789.269 625.796 458.636 574.968 393.013C571.305 388.27 576.616 387.685 579.008 388.346C651.088 408.787 743.024 430.567 801.136 470.027C905.426 540.87 894.854 704.601 881.539 681.149C824.932 581.61 776.89 531.209 730.938 531.335Z" fill="url(#paint10_linear_6_595)"/>
<path d="M472.953 1120.36C480.113 1113.16 568.017 1125.87 630.521 1143.9C639.997 1146.56 612.99 1075.3 522.501 1029.5C462.749 999.244 389.415 1053.97 327.304 1053.24C313.002 1053.05 406.335 1147.04 452.938 1174.12C534.486 1221.55 640.926 1168.13 620.802 1166.77C535.365 1160.78 468.855 1124.44 472.953 1120.36Z" fill="url(#paint11_linear_6_595)"/>
<path d="M480.607 645.878C480.398 654.961 543.11 703.94 593.495 733.197C601.106 737.638 538.268 764.344 452.571 734.242C395.981 714.37 385.919 633.006 346.943 593.319C337.969 584.202 456.577 586.268 502.972 599.625C584.186 622.952 615.6 724.883 602.252 712.747C545.436 661.2 480.707 640.717 480.607 645.878Z" fill="url(#paint12_linear_6_595)"/>
<path d="M1545.62 624.065C1534.4 625.387 1485.15 711.51 1458.01 778.923C1453.93 789.118 1409.7 716.336 1431.58 605.205C1446 531.786 1544.63 504.863 1586.65 449.686C1599.26 433.042 1613.42 594.39 1606.7 643.377C1592.41 747.759 1472.22 804.742 1484.81 786.057C1538.32 706.734 1551.98 623.262 1545.62 624.065Z" fill="url(#paint13_linear_6_595)"/>
<path d="M737.353 1324.01C825.877 1296.32 881.706 1327.03 970.171 1309.87C984.481 1307.12 948.115 1380.81 817.312 1455.14C730.863 1504.31 618.318 1428.36 526.365 1433.92C504.778 1435.25 637.128 1288.97 703.864 1245.75C821.293 1169.69 987.71 1234.81 957.993 1238.34C831.748 1253.31 768.701 1286.91 737.353 1324.01Z" fill="url(#paint14_linear_6_595)"/>
<path d="M1660.37 776.748C1689.44 1078.35 1569.9 1243.41 1452.12 1256.1C1270.49 1275.66 1177.35 1141.62 916.667 1282.81C1107.22 1231.43 1209.45 1315.04 1230.56 1388.21C1265.73 1510.14 1186.7 1692.07 1256.26 1888.42C1348.99 1383.97 1849.3 1509.81 1660.37 776.748Z" fill="url(#paint15_linear_6_595)"/>
<path d="M1270.64 1911.55C1322.52 1586.69 1639.85 1526.55 1663.77 1321.48C1639.85 1715.25 1508.05 1576.09 1270.64 1911.55Z" fill="url(#paint16_linear_6_595)"/>
<path d="M1604.13 1610.86C1517.7 1758.27 1386.07 1754.96 1305.96 1911.56C1428.45 1774.48 1571.01 1847.73 1604.13 1610.86Z" fill="url(#paint17_linear_6_595)"/>
<path d="M1.0918 2590.56V2226.93H226.589V2274.16H55.9568V2384.95H210.432V2432H55.9568V2590.56H1.0918ZM368.191 2596.6C350.909 2596.6 335.284 2593.4 321.316 2587.01C307.348 2580.5 296.28 2571.09 288.113 2558.78C280.064 2546.47 276.039 2531.38 276.039 2513.5C276.039 2498.11 278.998 2485.45 284.917 2475.51C290.835 2465.56 298.825 2457.69 308.887 2451.89C318.949 2446.09 330.193 2441.71 342.622 2438.75C355.051 2435.79 367.718 2433.54 380.62 2432C396.955 2430.11 410.213 2428.57 420.393 2427.39C430.573 2426.09 437.971 2424.01 442.587 2421.17C447.204 2418.33 449.512 2413.72 449.512 2407.32V2406.08C449.512 2390.57 445.131 2378.56 436.372 2370.04C427.731 2361.51 414.829 2357.25 397.665 2357.25C379.791 2357.25 365.705 2361.22 355.407 2369.15C345.227 2376.96 338.183 2385.66 334.277 2395.25L284.384 2383.89C290.303 2367.31 298.944 2353.94 310.307 2343.76C321.789 2333.46 334.987 2326 349.902 2321.39C364.816 2316.65 380.501 2314.28 396.954 2314.28C407.844 2314.28 419.387 2315.59 431.579 2318.19C443.889 2320.68 455.371 2325.29 466.025 2332.04C476.797 2338.79 485.614 2348.43 492.48 2360.98C499.345 2373.41 502.779 2389.57 502.779 2409.45V2590.56H450.932V2553.28H448.802C445.369 2560.14 440.22 2566.89 433.354 2573.52C426.489 2580.15 417.67 2585.65 406.898 2590.03C396.127 2594.41 383.224 2596.6 368.191 2596.6ZM379.732 2553.99C394.41 2553.99 406.958 2551.09 417.374 2545.29C427.909 2539.49 435.899 2531.91 441.344 2522.56C446.908 2513.09 449.69 2502.97 449.69 2492.2V2457.04C447.796 2458.93 444.126 2460.71 438.681 2462.37C433.354 2463.91 427.258 2465.27 420.393 2466.45C413.527 2467.52 406.839 2468.52 400.329 2469.47C393.818 2470.3 388.372 2471.01 383.993 2471.6C373.694 2472.9 364.285 2475.09 355.762 2478.17C347.358 2481.25 340.611 2485.69 335.521 2491.49C330.549 2497.17 328.062 2504.74 328.062 2514.21C328.062 2527.35 332.915 2537.3 342.622 2544.04C352.328 2550.67 364.699 2553.99 379.732 2553.99ZM573.491 2590.56V2317.84H624.45V2362.22H627.823C633.505 2347.19 642.797 2335.47 655.7 2327.07C668.602 2318.55 684.05 2314.28 702.042 2314.28C720.271 2314.28 735.541 2318.55 747.852 2327.07C760.281 2335.59 769.455 2347.31 775.373 2362.22H778.214C784.725 2347.66 795.082 2336.06 809.287 2327.42C823.491 2318.66 840.418 2314.28 860.068 2314.28C884.807 2314.28 904.99 2322.04 920.615 2337.54C936.358 2353.05 944.23 2376.43 944.23 2407.68V2590.56H891.14V2412.65C891.14 2394.18 886.109 2380.81 876.048 2372.52C865.986 2364.24 853.972 2360.09 840.004 2360.09C822.722 2360.09 809.287 2365.42 799.698 2376.07C790.11 2386.61 785.316 2400.16 785.316 2416.73V2590.56H732.404V2409.28C732.404 2394.48 727.788 2382.58 718.555 2373.59C709.322 2364.59 697.307 2360.09 682.511 2360.09C672.449 2360.09 663.157 2362.76 654.635 2368.08C646.23 2373.29 639.424 2380.57 634.216 2389.92C629.126 2399.27 626.581 2410.11 626.581 2422.42V2590.56H573.491ZM1015.38 2590.56V2317.84H1068.47V2590.56H1015.38ZM1042.19 2275.75C1032.96 2275.75 1025.03 2272.68 1018.4 2266.52C1011.89 2260.25 1008.64 2252.79 1008.64 2244.15C1008.64 2235.39 1011.89 2227.93 1018.4 2221.78C1025.03 2215.5 1032.96 2212.37 1042.19 2212.37C1051.43 2212.37 1059.3 2215.5 1065.81 2221.78C1072.44 2227.93 1075.75 2235.39 1075.75 2244.15C1075.75 2252.79 1072.44 2260.25 1065.81 2266.52C1059.3 2272.68 1051.43 2275.75 1042.19 2275.75ZM1192.98 2226.93V2590.56H1139.9V2226.93H1192.98ZM1297.97 2692.84C1290.03 2692.84 1282.81 2692.18 1276.3 2690.88C1269.79 2689.7 1264.94 2688.4 1261.74 2686.98L1274.53 2643.47C1284.23 2646.08 1292.88 2647.2 1300.45 2646.85C1308.03 2646.49 1314.71 2643.65 1320.52 2638.33C1326.43 2633 1331.64 2624.3 1336.14 2612.22L1342.71 2594.11L1242.92 2317.84H1299.74L1368.81 2529.48H1371.65L1440.72 2317.84H1497.72L1385.32 2626.96C1380.11 2641.17 1373.49 2653.18 1365.44 2663.01C1357.39 2672.95 1347.8 2680.41 1336.67 2685.38C1325.55 2690.35 1312.64 2692.84 1297.97 2692.84ZM1662 2290.31V2226.93H1960.65V2290.31H1849.32V2590.56H1773.33V2290.31H1662ZM1980.09 2590.56V2317.84H2053.43V2365.42H2056.27C2061.24 2348.49 2069.58 2335.71 2081.3 2327.07C2093.02 2318.31 2106.51 2313.93 2121.78 2313.93C2125.57 2313.93 2129.66 2314.17 2134.04 2314.64C2138.42 2315.11 2142.26 2315.76 2145.58 2316.59V2383.71C2142.03 2382.64 2137.11 2381.7 2130.84 2380.87C2124.57 2380.04 2118.83 2379.62 2113.62 2379.62C2102.49 2379.62 2092.55 2382.05 2083.79 2386.9C2075.15 2391.64 2068.28 2398.27 2063.19 2406.79C2058.22 2415.31 2055.73 2425.14 2055.73 2436.27V2590.56H1980.09ZM2296.28 2595.89C2268.22 2595.89 2244.08 2590.21 2223.84 2578.84C2203.71 2567.36 2188.21 2551.14 2177.32 2530.19C2166.43 2509.12 2160.98 2484.21 2160.98 2455.44C2160.98 2427.39 2166.43 2402.77 2177.32 2381.58C2188.21 2360.39 2203.53 2343.88 2223.3 2332.04C2243.19 2320.2 2266.51 2314.28 2293.26 2314.28C2311.25 2314.28 2328 2317.18 2343.51 2322.98C2359.13 2328.67 2372.75 2337.25 2384.35 2348.73C2396.07 2360.21 2405.18 2374.65 2411.69 2392.05C2418.2 2409.34 2421.46 2429.58 2421.46 2452.78V2473.55H2191.16V2426.68H2350.26C2350.26 2415.79 2347.89 2406.14 2343.15 2397.74C2338.42 2389.33 2331.85 2382.76 2323.44 2378.03C2315.16 2373.17 2305.51 2370.75 2294.5 2370.75C2283.02 2370.75 2272.84 2373.41 2263.96 2378.74C2255.2 2383.95 2248.34 2390.99 2243.37 2399.87C2238.39 2408.63 2235.85 2418.39 2235.73 2429.16V2473.73C2235.73 2487.22 2238.22 2498.88 2243.19 2508.71C2248.28 2518.53 2255.44 2526.11 2264.67 2531.44C2273.91 2536.76 2284.86 2539.43 2297.52 2539.43C2305.93 2539.43 2313.62 2538.24 2320.6 2535.87C2327.59 2533.51 2333.57 2529.96 2338.54 2525.22C2343.51 2520.49 2347.3 2514.69 2349.9 2507.82L2419.86 2512.44C2416.31 2529.25 2409.03 2543.92 2398.02 2556.47C2387.13 2568.9 2373.04 2578.61 2355.76 2585.59C2338.6 2592.46 2318.77 2595.89 2296.28 2595.89ZM2595.11 2595.89C2567.05 2595.89 2542.9 2590.21 2522.66 2578.84C2502.54 2567.36 2487.03 2551.14 2476.14 2530.19C2465.25 2509.12 2459.81 2484.21 2459.81 2455.44C2459.81 2427.39 2465.25 2402.77 2476.14 2381.58C2487.03 2360.39 2502.36 2343.88 2522.13 2332.04C2542.02 2320.2 2565.34 2314.28 2592.09 2314.28C2610.08 2314.28 2626.83 2317.18 2642.34 2322.98C2657.96 2328.67 2671.57 2337.25 2683.17 2348.73C2694.89 2360.21 2704.01 2374.65 2710.52 2392.05C2717.03 2409.34 2720.28 2429.58 2720.28 2452.78V2473.55H2489.99V2426.68H2649.08C2649.08 2415.79 2646.72 2406.14 2641.98 2397.74C2637.25 2389.33 2630.68 2382.76 2622.27 2378.03C2613.99 2373.17 2604.34 2370.75 2593.33 2370.75C2581.85 2370.75 2571.67 2373.41 2562.79 2378.74C2554.03 2383.95 2547.17 2390.99 2542.19 2399.87C2537.22 2408.63 2534.68 2418.39 2534.56 2429.16V2473.73C2534.56 2487.22 2537.05 2498.88 2542.02 2508.71C2547.11 2518.53 2554.27 2526.11 2563.5 2531.44C2572.73 2536.76 2583.68 2539.43 2596.35 2539.43C2604.75 2539.43 2612.45 2538.24 2619.43 2535.87C2626.42 2533.51 2632.39 2529.96 2637.37 2525.22C2642.34 2520.49 2646.12 2514.69 2648.73 2507.82L2718.69 2512.44C2715.14 2529.25 2707.86 2543.92 2696.85 2556.47C2685.96 2568.9 2671.87 2578.61 2654.59 2585.59C2637.42 2592.46 2617.6 2595.89 2595.11 2595.89Z" fill="#404041"/>
<defs>
<radialGradient id="paint0_radial_6_595" cx="0" cy="0" r="1" gradientUnits="userSpaceOnUse" gradientTransform="translate(1376.57 927.002) scale(372.163 372.162)">
<stop stop-color="#C3996B"/>
<stop offset="0.3668" stop-color="#A1774E"/>
<stop offset="0.7742" stop-color="#815832"/>
<stop offset="1" stop-color="#754C28"/>
</radialGradient>
<linearGradient id="paint1_linear_6_595" x1="533.757" y1="952.839" x2="1075.47" y2="952.839" gradientUnits="userSpaceOnUse">
<stop stop-color="#F6921E"/>
<stop offset="0.1751" stop-color="#F58620"/>
<stop offset="0.706" stop-color="#F16626"/>
<stop offset="1" stop-color="#F05A28"/>
</linearGradient>
<linearGradient id="paint2_linear_6_595" x1="971.382" y1="422.626" x2="1274.51" y2="884.776" gradientUnits="userSpaceOnUse">
<stop stop-color="#98C93C"/>
<stop offset="1" stop-color="#009345"/>
</linearGradient>
<linearGradient id="paint3_linear_6_595" x1="2203.11" y1="477.299" x2="1756" y2="815.361" gradientUnits="userSpaceOnUse">
<stop stop-color="#A2238D"/>
<stop offset="0.17" stop-color="#91268E"/>
<stop offset="0.4798" stop-color="#792A8F"/>
<stop offset="0.7649" stop-color="#6A2C90"/>
<stop offset="1" stop-color="#652D90"/>
</linearGradient>
<linearGradient id="paint4_linear_6_595" x1="2238.21" y1="1151.53" x2="1671.7" y2="1226.44" gradientUnits="userSpaceOnUse">
<stop stop-color="#ED3024"/>
<stop offset="1" stop-color="#AD1B1F"/>
</linearGradient>
<linearGradient id="paint5_linear_6_595" x1="2400.04" y1="898.844" x2="2033.28" y2="950.232" gradientUnits="userSpaceOnUse">
<stop stop-color="#F6921E"/>
<stop offset="0.1751" stop-color="#F58620"/>
<stop offset="0.706" stop-color="#F16626"/>
<stop offset="1" stop-color="#F05A28"/>
</linearGradient>
<linearGradient id="paint6_linear_6_595" x1="1932.38" y1="116.294" x2="1677.27" y2="558.83" gradientUnits="userSpaceOnUse">
<stop stop-color="#98C93C"/>
<stop offset="1" stop-color="#009345"/>
</linearGradient>
<linearGradient id="paint7_linear_6_595" x1="1133.52" y1="42.1764" x2="1317.39" y2="544.094" gradientUnits="userSpaceOnUse">
<stop stop-color="#1FC3F3"/>
<stop offset="0.1673" stop-color="#1EB5E8"/>
<stop offset="0.4846" stop-color="#1D8FCC"/>
<stop offset="0.9155" stop-color="#1B549F"/>
<stop offset="1" stop-color="#1A4796"/>
</linearGradient>
<linearGradient id="paint8_linear_6_595" x1="1568.56" y1="-9.70554" x2="1454.59" y2="499.361" gradientUnits="userSpaceOnUse">
<stop stop-color="#F6921E"/>
<stop offset="0.1751" stop-color="#F58620"/>
<stop offset="0.706" stop-color="#F16626"/>
<stop offset="1" stop-color="#F05A28"/>
</linearGradient>
<linearGradient id="paint9_linear_6_595" x1="837.361" y1="135.975" x2="1039" y2="366.73" gradientUnits="userSpaceOnUse">
<stop stop-color="#A2238D"/>
<stop offset="0.17" stop-color="#91268E"/>
<stop offset="0.4798" stop-color="#792A8F"/>
<stop offset="0.7649" stop-color="#6A2C90"/>
<stop offset="1" stop-color="#652D90"/>
</linearGradient>
<linearGradient id="paint10_linear_6_595" x1="573.716" y1="553.78" x2="889.806" y2="553.78" gradientUnits="userSpaceOnUse">
<stop stop-color="#EC1C24"/>
<stop offset="1" stop-color="#AD1B1F"/>
</linearGradient>
<linearGradient id="paint11_linear_6_595" x1="306.653" y1="1047.32" x2="651.6" y2="1153.46" gradientUnits="userSpaceOnUse">
<stop stop-color="#A2238D"/>
<stop offset="0.17" stop-color="#91268E"/>
<stop offset="0.4798" stop-color="#792A8F"/>
<stop offset="0.7649" stop-color="#6A2C90"/>
<stop offset="1" stop-color="#652D90"/>
</linearGradient>
<linearGradient id="paint12_linear_6_595" x1="330.329" y1="583.623" x2="612.751" y2="740.888" gradientUnits="userSpaceOnUse">
<stop stop-color="#98C93C"/>
<stop offset="1" stop-color="#009345"/>
</linearGradient>
<linearGradient id="paint13_linear_6_595" x1="1558.27" y1="462.274" x2="1467.53" y2="841.241" gradientUnits="userSpaceOnUse">
<stop stop-color="#1FC3F3"/>
<stop offset="0.1673" stop-color="#1EB5E8"/>
<stop offset="0.4846" stop-color="#1D8FCC"/>
<stop offset="0.9155" stop-color="#1B549F"/>
<stop offset="1" stop-color="#1A4796"/>
</linearGradient>
<linearGradient id="paint14_linear_6_595" x1="585.645" y1="1422.53" x2="979.084" y2="1257.48" gradientUnits="userSpaceOnUse">
<stop stop-color="#98C93C"/>
<stop offset="1" stop-color="#009345"/>
</linearGradient>
<linearGradient id="paint15_linear_6_595" x1="1347.52" y1="957.24" x2="1158.68" y2="2159.84" gradientUnits="userSpaceOnUse">
<stop stop-color="#C3996B"/>
<stop offset="0.3668" stop-color="#A1774E"/>
<stop offset="0.7742" stop-color="#815832"/>
<stop offset="1" stop-color="#754C28"/>
</linearGradient>
<linearGradient id="paint16_linear_6_595" x1="1499.42" y1="1370.01" x2="1429.85" y2="1926.57" gradientUnits="userSpaceOnUse">
<stop stop-color="#98C93C"/>
<stop offset="1" stop-color="#009345"/>
</linearGradient>
<linearGradient id="paint17_linear_6_595" x1="1557.73" y1="1559.86" x2="1309.26" y2="2096.56" gradientUnits="userSpaceOnUse">
<stop stop-color="#98C93C"/>
<stop offset="1" stop-color="#009345"/>
</linearGradient>
</defs>
</svg>
